<svg width="196" height="47" viewBox="0 0 196 47" fill="none" xmlns="http://www.w3.org/2000/svg">
<path d="M51.652 32C51.4787 32 51.3313 31.9393 51.21 31.818C51.0887 31.6967 51.028 31.5493 51.028 31.376V14.45C51.028 14.2593 51.08 14.1033 51.184 13.982C51.3053 13.8607 51.4613 13.8 51.652 13.8H57.996C63.092 13.8 65.692 16.1573 65.796 20.872C65.8307 21.8773 65.848 22.5533 65.848 22.9C65.848 23.2293 65.8307 23.8967 65.796 24.902C65.7267 27.3287 65.0767 29.1227 63.846 30.284C62.6153 31.428 60.7087 32 58.126 32H51.652ZM57.996 29.01C59.452 29.01 60.5007 28.6893 61.142 28.048C61.7833 27.3893 62.1213 26.3147 62.156 24.824C62.1907 23.784 62.208 23.134 62.208 22.874C62.208 22.5967 62.1907 21.9553 62.156 20.95C62.1213 19.5287 61.7573 18.48 61.064 17.804C60.388 17.128 59.322 16.79 57.866 16.79H54.642V29.01H57.996ZM69.9333 32C69.7599 32 69.6126 31.9393 69.4913 31.818C69.3699 31.6967 69.3093 31.5493 69.3093 31.376V14.45C69.3093 14.2593 69.3613 14.1033 69.4653 13.982C69.5866 13.8607 69.7426 13.8 69.9333 13.8H81.3733C81.5639 13.8 81.7199 13.8607 81.8413 13.982C81.9626 14.1033 82.0233 14.2593 82.0233 14.45V16.166C82.0233 16.3567 81.9626 16.5127 81.8413 16.634C81.7199 16.738 81.5639 16.79 81.3733 16.79H72.8193V21.392H80.8013C80.9919 21.392 81.1479 21.4527 81.2693 21.574C81.3906 21.678 81.4513 21.8253 81.4513 22.016V23.628C81.4513 23.8187 81.3906 23.9747 81.2693 24.096C81.1479 24.2 80.9919 24.252 80.8013 24.252H72.8193V29.01H81.5813C81.7719 29.01 81.9279 29.0707 82.0493 29.192C82.1706 29.3133 82.2313 29.4693 82.2313 29.66V31.376C82.2313 31.5667 82.1706 31.7227 82.0493 31.844C81.9279 31.948 81.7719 32 81.5813 32H69.9333ZM91.8011 32.26C90.2584 32.26 88.9324 32.026 87.8231 31.558C86.7137 31.09 85.8731 30.4747 85.3011 29.712C84.7291 28.9493 84.4257 28.126 84.3911 27.242C84.3911 27.086 84.4431 26.956 84.5471 26.852C84.6511 26.748 84.7811 26.696 84.9371 26.696H87.2511C87.4591 26.696 87.6151 26.7393 87.7191 26.826C87.8404 26.8953 87.9531 27.0167 88.0571 27.19C88.2304 27.7793 88.6291 28.2733 89.2531 28.672C89.8771 29.0707 90.7264 29.27 91.8011 29.27C93.0317 29.27 93.9591 29.0707 94.5831 28.672C95.2071 28.256 95.5191 27.684 95.5191 26.956C95.5191 26.4707 95.3544 26.072 95.0251 25.76C94.7131 25.448 94.2364 25.1793 93.5951 24.954C92.9711 24.7287 92.0351 24.4513 90.7871 24.122C88.7417 23.6367 87.2424 22.9953 86.2891 22.198C85.3531 21.3833 84.8851 20.2307 84.8851 18.74C84.8851 17.7347 85.1537 16.842 85.6911 16.062C86.2457 15.282 87.0344 14.6667 88.0571 14.216C89.0971 13.7653 90.3017 13.54 91.6711 13.54C93.0924 13.54 94.3231 13.7913 95.3631 14.294C96.4031 14.7967 97.1917 15.4293 97.7291 16.192C98.2837 16.9373 98.5784 17.6827 98.6131 18.428C98.6131 18.584 98.5611 18.714 98.4571 18.818C98.3531 18.922 98.2231 18.974 98.0671 18.974H95.6491C95.2851 18.974 95.0337 18.8093 94.8951 18.48C94.7911 17.9253 94.4444 17.466 93.8551 17.102C93.2657 16.7207 92.5377 16.53 91.6711 16.53C90.7004 16.53 89.9377 16.712 89.3831 17.076C88.8284 17.44 88.5511 17.9687 88.5511 18.662C88.5511 19.1473 88.6897 19.546 88.9671 19.858C89.2444 20.17 89.6777 20.4473 90.2671 20.69C90.8737 20.9327 91.7404 21.2013 92.8671 21.496C94.3924 21.8427 95.6057 22.2327 96.5071 22.666C97.4257 23.0993 98.1017 23.6453 98.5351 24.304C98.9684 24.9627 99.1851 25.8033 99.1851 26.826C99.1851 27.9353 98.8731 28.906 98.2491 29.738C97.6424 30.5527 96.7757 31.1767 95.6491 31.61C94.5397 32.0433 93.2571 32.26 91.8011 32.26ZM102.789 32C102.615 32 102.468 31.9393 102.347 31.818C102.225 31.6967 102.165 31.5493 102.165 31.376V14.424C102.165 14.2333 102.225 14.086 102.347 13.982C102.468 13.8607 102.615 13.8 102.789 13.8H105.233C105.423 13.8 105.571 13.8607 105.675 13.982C105.796 14.086 105.857 14.2333 105.857 14.424V31.376C105.857 31.5493 105.796 31.6967 105.675 31.818C105.571 31.9393 105.423 32 105.233 32H102.789ZM117.006 32.26C114.632 32.26 112.777 31.6447 111.442 30.414C110.125 29.1833 109.423 27.4673 109.336 25.266C109.319 24.7633 109.31 23.9573 109.31 22.848C109.31 21.7387 109.319 20.9327 109.336 20.43C109.423 18.2807 110.134 16.5993 111.468 15.386C112.82 14.1553 114.666 13.54 117.006 13.54C118.601 13.54 119.97 13.8087 121.114 14.346C122.258 14.8833 123.125 15.5593 123.714 16.374C124.304 17.1713 124.616 17.96 124.65 18.74V18.792C124.65 18.9307 124.598 19.052 124.494 19.156C124.39 19.2427 124.26 19.286 124.104 19.286H121.426C121.253 19.286 121.123 19.26 121.036 19.208C120.95 19.1387 120.872 19.026 120.802 18.87C120.56 18.2287 120.135 17.6827 119.528 17.232C118.922 16.764 118.081 16.53 117.006 16.53C115.793 16.53 114.84 16.8593 114.146 17.518C113.47 18.1767 113.106 19.1907 113.054 20.56C113.037 21.0627 113.028 21.8253 113.028 22.848C113.028 23.8533 113.037 24.616 113.054 25.136C113.158 27.892 114.493 29.27 117.058 29.27C118.289 29.27 119.277 28.9407 120.022 28.282C120.768 27.606 121.14 26.6093 121.14 25.292V24.486H117.968C117.778 24.486 117.622 24.4253 117.5 24.304C117.396 24.1827 117.344 24.0267 117.344 23.836V22.458C117.344 22.2673 117.396 22.1113 117.5 21.99C117.622 21.8687 117.778 21.808 117.968 21.808H124.182C124.373 21.808 124.52 21.8687 124.624 21.99C124.746 22.1113 124.806 22.2673 124.806 22.458V25.188C124.806 26.6267 124.486 27.8833 123.844 28.958C123.22 30.0153 122.319 30.83 121.14 31.402C119.962 31.974 118.584 32.26 117.006 32.26ZM128.763 32C128.59 32 128.443 31.9393 128.321 31.818C128.2 31.6967 128.139 31.5493 128.139 31.376V14.45C128.139 14.2593 128.191 14.1033 128.295 13.982C128.417 13.8607 128.573 13.8 128.763 13.8H130.765C130.973 13.8 131.129 13.8433 131.233 13.93C131.337 13.9993 131.433 14.0947 131.519 14.216L139.007 25.864V14.45C139.007 14.2593 139.059 14.1033 139.163 13.982C139.285 13.8607 139.441 13.8 139.631 13.8H141.815C142.006 13.8 142.162 13.8607 142.283 13.982C142.405 14.1033 142.465 14.2593 142.465 14.45V31.35C142.465 31.5407 142.405 31.6967 142.283 31.818C142.162 31.9393 142.015 32 141.841 32H139.813C139.519 32 139.267 31.8613 139.059 31.584L131.597 20.196V31.376C131.597 31.5667 131.537 31.7227 131.415 31.844C131.294 31.948 131.138 32 130.947 32H128.763ZM146.132 32C145.941 32 145.785 31.9393 145.664 31.818C145.56 31.6967 145.508 31.5407 145.508 31.35V29.53C145.508 29.2353 145.569 29.01 145.69 28.854C145.811 28.6807 145.881 28.5853 145.898 28.568L154.946 16.868H146.392C146.219 16.868 146.071 16.8073 145.95 16.686C145.829 16.5647 145.768 16.4173 145.768 16.244V14.45C145.768 14.2593 145.82 14.1033 145.924 13.982C146.045 13.8607 146.201 13.8 146.392 13.8H158.82C159.011 13.8 159.167 13.8607 159.288 13.982C159.409 14.1033 159.47 14.2593 159.47 14.45V16.244C159.47 16.556 159.357 16.8593 159.132 17.154L150.266 28.906H159.106C159.297 28.906 159.453 28.9667 159.574 29.088C159.695 29.2093 159.756 29.3653 159.756 29.556V31.376C159.756 31.5667 159.695 31.7227 159.574 31.844C159.453 31.948 159.297 32 159.106 32H146.132ZM169.64 32.26C167.248 32.26 165.393 31.6447 164.076 30.414C162.776 29.1833 162.082 27.45 161.996 25.214C161.978 24.746 161.97 23.9833 161.97 22.926C161.97 21.8513 161.978 21.0713 161.996 20.586C162.082 18.3673 162.784 16.6427 164.102 15.412C165.436 14.164 167.282 13.54 169.64 13.54C171.182 13.54 172.526 13.8087 173.67 14.346C174.814 14.866 175.698 15.5853 176.322 16.504C176.946 17.4053 177.275 18.428 177.31 19.572V19.624C177.31 19.7627 177.249 19.884 177.128 19.988C177.024 20.0747 176.902 20.118 176.764 20.118H174.294C174.086 20.118 173.93 20.0747 173.826 19.988C173.722 19.9013 173.635 19.7367 173.566 19.494C173.288 18.402 172.829 17.6393 172.188 17.206C171.546 16.7553 170.688 16.53 169.614 16.53C167.118 16.53 165.818 17.9253 165.714 20.716C165.696 21.184 165.688 21.9033 165.688 22.874C165.688 23.8447 165.696 24.5813 165.714 25.084C165.818 27.8747 167.118 29.27 169.614 29.27C170.688 29.27 171.546 29.0447 172.188 28.594C172.846 28.1433 173.306 27.3807 173.566 26.306C173.618 26.0633 173.696 25.8987 173.8 25.812C173.921 25.7253 174.086 25.682 174.294 25.682H176.764C176.92 25.682 177.05 25.734 177.154 25.838C177.275 25.942 177.327 26.072 177.31 26.228C177.275 27.372 176.946 28.4033 176.322 29.322C175.698 30.2233 174.814 30.9427 173.67 31.48C172.526 32 171.182 32.26 169.64 32.26ZM185.319 32C185.145 32 184.998 31.9393 184.877 31.818C184.755 31.6967 184.695 31.5493 184.695 31.376V25.5L178.559 14.632C178.507 14.5453 178.481 14.45 178.481 14.346C178.481 14.19 178.533 14.06 178.637 13.956C178.741 13.852 178.862 13.8 179.001 13.8H181.315C181.505 13.8 181.661 13.852 181.783 13.956C181.921 14.06 182.025 14.1727 182.095 14.294L186.515 21.86L190.909 14.294C191.117 13.9647 191.385 13.8 191.715 13.8H194.003C194.159 13.8 194.289 13.852 194.393 13.956C194.497 14.06 194.549 14.19 194.549 14.346C194.549 14.45 194.523 14.5453 194.471 14.632L188.335 25.5V31.376C188.335 31.5493 188.274 31.6967 188.153 31.818C188.031 31.9393 187.875 32 187.685 32H185.319Z" fill="#3D3D3F"/>
<g opacity="0.95">
<path d="M20.7972 31.4152C19.5321 31.4208 18.2838 31.1144 17.1546 30.521C16.0254 29.9276 15.0474 29.0642 14.3011 28.0015L9.09882 31.1099C9.29678 31.3473 9.53113 31.5489 9.79246 31.7066L19.0498 37.2573C19.5908 37.5448 20.1896 37.6947 20.7972 37.6947C21.4047 37.6947 22.0035 37.5448 22.5446 37.2573L31.8019 31.7066C32.0632 31.5489 32.2976 31.3473 32.4955 31.1099L27.3067 27.946C26.5647 29.0208 25.5872 29.8961 24.4551 30.4994C23.3231 31.1027 22.0691 31.4167 20.7972 31.4152Z" fill="url(#paint0_linear_2_56)"/>
<path d="M12.6529 23.0388C12.6577 21.0653 13.4247 19.1627 14.8074 17.6946C16.1901 16.2266 18.0915 15.296 20.1481 15.0807V9.09888C19.8361 9.16075 19.5359 9.26811 19.2582 9.4172L9.60759 14.7226C9.08305 15.0573 8.64689 15.5033 8.33331 16.0257C8.01967 16.548 7.83711 17.1325 7.79987 17.7334V28.3441C7.80416 28.6503 7.85563 28.9543 7.95279 29.2461L13.3761 26.2618C12.9018 25.2474 12.6555 24.1495 12.6529 23.0388Z" fill="url(#paint1_linear_2_56)"/>
<path d="M32.082 14.7189L22.9394 9.41701C22.6763 9.26798 22.3919 9.16068 22.0963 9.09888V15.0635C23.3383 15.2051 24.53 15.6381 25.5753 16.3278C26.6206 17.0174 27.4904 17.9443 28.1145 19.034C28.7387 20.1236 29.0998 21.3455 29.1688 22.6013C29.2378 23.857 29.0128 25.1115 28.5119 26.2638L33.6498 29.2461C33.7418 28.9544 33.7906 28.6507 33.7946 28.3448V17.741C33.7613 17.1382 33.5893 16.5515 33.2921 16.027C32.9948 15.5025 32.5807 15.0547 32.082 14.7189Z" fill="url(#paint2_linear_2_56)"/>
<path d="M38.7421 9.4049L23.6492 0.6761C22.7641 0.231497 21.7874 0 20.7971 0C19.8068 0 18.8302 0.231497 17.945 0.6761L2.85206 9.4049C2.02362 9.94536 1.33387 10.6733 0.838384 11.53C0.342958 12.3866 0.0557622 13.3479 0 14.3362V31.7937C0.0547224 32.7841 0.341398 33.7477 0.836824 34.6067C1.33225 35.4657 2.02258 36.196 2.85206 36.7387L17.945 45.4676C18.8302 45.9122 19.8068 46.1436 20.7971 46.1436C21.7874 46.1436 22.7641 45.9122 23.6492 45.4676L38.7421 36.7387C39.5716 36.196 40.2619 35.4657 40.7574 34.6067C41.2528 33.7477 41.5395 32.7841 41.5942 31.7937V14.3362C41.5384 13.3479 41.2512 12.3866 40.7558 11.53C40.2603 10.6733 39.5706 9.94536 38.7421 9.4049ZM36.8043 29.7857C36.76 30.5465 36.5382 31.2863 36.1566 31.9458C35.7751 32.6053 35.2444 33.166 34.6072 33.5832L22.9805 40.3039C22.3013 40.6473 21.5511 40.8262 20.7903 40.8262C20.0294 40.8262 19.2792 40.6473 18.6001 40.3039L6.98698 33.5832C6.34974 33.166 5.81909 32.6053 5.4376 31.9458C5.05603 31.2863 4.83422 30.5465 4.7899 29.7857V16.3579C4.83422 15.597 5.05603 14.8572 5.4376 14.1978C5.81909 13.5383 6.34974 12.9775 6.98698 12.5603L18.5864 5.83963C19.2655 5.49628 20.0157 5.31736 20.7766 5.31736C21.5375 5.31736 22.2877 5.49628 22.9669 5.83963L34.5936 12.5603C35.2333 12.976 35.7667 13.5361 36.1506 14.1957C36.5346 14.8552 36.7585 15.5959 36.8043 16.3579V29.7857Z" fill="url(#paint3_linear_2_56)"/>
<path d="M14.9467 23.0718C14.9467 24.1644 15.2897 25.2325 15.9324 26.1409C16.5751 27.0494 17.4887 27.7574 18.5575 28.1756C19.6263 28.5937 20.8024 28.703 21.9371 28.4899C23.0717 28.2768 24.1139 27.7507 24.9319 26.978C25.7499 26.2055 26.307 25.2212 26.5327 24.1496C26.7584 23.0779 26.6426 21.9672 26.1998 20.9578C25.7571 19.9484 25.0075 19.0856 24.0456 18.4786C23.0837 17.8716 21.9527 17.5476 20.7959 17.5476C19.2446 17.5476 17.7569 18.1296 16.6599 19.1656C15.563 20.2016 14.9467 21.6067 14.9467 23.0718Z" fill="url(#paint4_linear_2_56)"/>
</g>
<defs>
<linearGradient id="paint0_linear_2_56" x1="23.3444" y1="39.3819" x2="23.6238" y2="25.6025" gradientUnits="userSpaceOnUse">
<stop stop-color="#F35F2F"/>
<stop offset="1" stop-color="#F35F2F" stop-opacity="0.75"/>
</linearGradient>
<linearGradient id="paint1_linear_2_56" x1="15.3184" y1="32.7331" x2="17.5663" y2="4.42243" gradientUnits="userSpaceOnUse">
<stop stop-color="#F35F2F"/>
<stop offset="1" stop-color="#F35F2F" stop-opacity="0.75"/>
</linearGradient>
<linearGradient id="paint2_linear_2_56" x1="29.219" y1="32.7331" x2="31.5901" y2="4.44267" gradientUnits="userSpaceOnUse">
<stop stop-color="#F35F2F"/>
<stop offset="1" stop-color="#F35F2F" stop-opacity="0.75"/>
</linearGradient>
<linearGradient id="paint3_linear_2_56" x1="25.3255" y1="54.1299" x2="28.838" y2="-10.9297" gradientUnits="userSpaceOnUse">
<stop stop-color="#F35F2F"/>
<stop offset="1" stop-color="#F35F2F" stop-opacity="0.75"/>
</linearGradient>
<linearGradient id="paint4_linear_2_56" x1="22.0695" y1="30.5083" x2="22.7861" y2="14.9182" gradientUnits="userSpaceOnUse">
<stop stop-color="#F35F2F"/>
<stop offset="1" stop-color="#F35F2F" stop-opacity="0.75"/>
</linearGradient>
</defs>
</svg>
